<svg xmlns="http://www.w3.org/2000/svg" version="1.1" xmlns:xlink="http://www.w3.org/1999/xlink" xmlns:svgjs="http://svgjs.dev/svgjs" width="1500" height="1500" viewBox="0 0 1500 1500"><rect width="1500" height="1500" fill="#ffffff"></rect><g transform="matrix(0.6666666666666666,0,0,0.6666666666666666,249.39393939393938,438.58569500674764)"><svg viewBox="0 0 396 247" data-background-color="#ffffff" preserveAspectRatio="xMidYMid meet" height="935" width="1500" xmlns="http://www.w3.org/2000/svg" xmlns:xlink="http://www.w3.org/1999/xlink"><g id="tight-bounds" transform="matrix(1,0,0,1,0.2400000000000091,-0.09999999999999432)"><svg viewBox="0 0 395.52 247.2" height="247.2" width="395.52"><g><svg></svg></g><g><svg viewBox="0 0 395.52 247.2" height="247.2" width="395.52"><g transform="matrix(1,0,0,1,75.54432000000001,107.2915292233787)"><svg viewBox="0 0 244.43135999999996 32.61694155324258" height="32.61694155324258" width="244.43135999999996"><g><svg viewBox="0 0 244.43135999999996 32.61694155324258" height="32.61694155324258" width="244.43135999999996"><g><svg viewBox="0 0 244.43136 32.61694155324259" height="32.61694155324258" width="244.43135999999996"><g><svg viewBox="0 0 244.43136 32.61694155324259" height="32.61694155324259" width="244.43136"><g id="textblocktransform"><svg viewBox="0 0 244.43136 32.61694155324259" height="32.61694155324259" width="244.43136" id="textblock"><g><svg viewBox="0 0 244.43136 32.61694155324259" height="32.61694155324259" width="244.43136"><g transform="matrix(1,0,0,1,0,0)"><svg width="244.43136" viewBox="1.75 -37.5 374.67 50" height="32.61694155324259" data-palette-color="#ff7900"><path d="M28.7-2.1L28.7-2.1 27.55-3.75Q25.75-2.7 23.73-2.13 21.7-1.55 19.5-1.55L19.5-1.55Q16.25-1.55 13.4-2.83 10.55-4.1 8.45-6.25L8.45-6.25Q6.3-8.35 5.05-11.25 3.8-14.15 3.8-17.4L3.8-17.4Q3.8-20.7 5.05-23.63 6.3-26.55 8.45-28.7L8.45-28.7Q10.6-30.9 13.45-32.18 16.3-33.45 19.6-33.45L19.6-33.45Q21.5-33.45 23.33-32.98 25.15-32.5 26.8-31.65L26.8-31.65 26.8-27.3 28.75-27.3 28.75-32.9Q26.7-34.1 24.43-34.75 22.15-35.4 19.6-35.4L19.6-35.4Q15.9-35.4 12.65-33.98 9.4-32.55 7-30.15L7-30.15Q4.55-27.7 3.15-24.43 1.75-21.15 1.75-17.45L1.75-17.45Q1.75-13.75 3.15-10.5 4.55-7.25 7-4.85L7-4.85Q9.4-2.4 12.65-1 15.9 0.4 19.6 0.4L19.6 0.4Q22.15 0.4 24.43-0.28 26.7-0.95 28.7-2.1ZM32.25 0L41.9 0 41.9-1.95 38-1.95 38-37.5 32.4-37.5 32.4-35.55 35.95-35.55 35.95-1.95 32.25-1.95 32.25 0ZM55.2-17.15L55.2-17.15Q57.15-17.15 58.72-16.07 60.3-15 61.2-13.3L61.2-13.3Q57.8-11.95 54.42-10.63 51.05-9.3 47.65-7.95L47.65-7.95Q47.3-9.65 47.7-11.28 48.1-12.9 49.1-14.2L49.1-14.2Q50.15-15.55 51.72-16.35 53.3-17.15 55.2-17.15ZM61.75-2.25L61.75-2.25 60.5-3.75Q59.45-2.75 58.1-2.2 56.75-1.65 55.2-1.65L55.2-1.65Q52.85-1.65 51-2.85 49.15-4.05 48.25-6L48.25-6Q52.15-7.6 56.02-9.1 59.9-10.6 63.8-12.15L63.8-12.15Q63.3-13.65 62.5-14.93 61.7-16.2 60.65-17.1L60.65-17.1Q59.55-18.1 58.15-18.63 56.75-19.15 55.2-19.15L55.2-19.15Q53.15-19.15 51.37-18.38 49.6-17.6 48.25-16.3L48.25-16.3Q46.9-15 46.15-13.2 45.4-11.4 45.4-9.4L45.4-9.4Q45.4-7.35 46.15-5.6 46.9-3.85 48.25-2.5L48.25-2.5Q49.6-1.15 51.37-0.4 53.15 0.35 55.2 0.35L55.2 0.35Q57.15 0.35 58.8-0.35 60.45-1.05 61.75-2.25ZM85.29 0L90.84 0 90.84-1.95 87.14-1.95 87.14-18.75 85.49-18.75Q85.39-17.65 85.34-16.53 85.29-15.4 85.29-14.35L85.29-14.35Q84.44-16.3 82.34-17.73 80.24-19.15 77.29-19.15L77.29-19.15Q75.19-19.15 73.42-18.38 71.64-17.6 70.29-16.3L70.29-16.3Q68.94-14.95 68.19-13.15 67.44-11.35 67.44-9.4L67.44-9.4Q67.44-7.35 68.19-5.6 68.94-3.85 70.29-2.5L70.29-2.5Q71.64-1.15 73.42-0.4 75.19 0.35 77.29 0.35L77.29 0.35Q78.79 0.35 80.12-0.05 81.44-0.45 82.49-1.15L82.49-1.15Q83.49-1.8 84.22-2.63 84.94-3.45 85.29-4.35L85.29-4.35Q85.29-3.7 85.29-3.18 85.29-2.65 85.29-2.05L85.29-2.05 85.29 0ZM77.29-17.15L77.29-17.15Q78.89-17.15 80.29-16.57 81.69-16 82.79-14.95L82.79-14.95Q83.84-13.9 84.47-12.48 85.09-11.05 85.09-9.4L85.09-9.4Q85.09-7.75 84.47-6.33 83.84-4.9 82.74-3.85L82.74-3.85Q81.69-2.8 80.29-2.23 78.89-1.65 77.29-1.65L77.29-1.65Q75.69-1.65 74.34-2.2 72.99-2.75 71.94-3.75L71.94-3.75Q70.79-4.8 70.14-6.25 69.49-7.7 69.49-9.4L69.49-9.4Q69.49-11 70.07-12.4 70.64-13.8 71.69-14.85L71.69-14.85Q72.69-15.95 74.14-16.55 75.59-17.15 77.29-17.15ZM94.34 0L103.99 0 103.99-1.95 100.29-1.95 100.29-10.25Q100.29-11.75 100.92-13 101.54-14.25 102.64-15.2L102.64-15.2Q103.64-16.1 105.04-16.6 106.44-17.1 107.99-17.1L107.99-17.1Q110.09-17 111.17-15.83 112.24-14.65 112.34-13L112.34-13 112.34-1.95 108.44-1.95 108.44 0 118.09 0 118.09-1.95 114.39-1.95 114.39-13.55Q114.29-16.05 112.69-17.6 111.09-19.15 108.34-19.15L108.34-19.15Q105.54-19.15 103.34-17.7 101.14-16.25 100.14-13.9L100.14-13.9Q100.09-14.75 100.04-15.43 99.99-16.1 99.94-16.95L99.94-16.95 99.89-18.75 94.64-18.75 94.64-16.8 98.24-16.8 98.24-1.95 94.34-1.95 94.34 0ZM163.54-2.1L163.54-2.1 162.39-3.75Q160.59-2.7 158.56-2.13 156.54-1.55 154.34-1.55L154.34-1.55Q151.09-1.55 148.24-2.83 145.39-4.1 143.29-6.25L143.29-6.25Q141.14-8.35 139.89-11.25 138.64-14.15 138.64-17.4L138.64-17.4Q138.64-20.7 139.89-23.63 141.14-26.55 143.29-28.7L143.29-28.7Q145.44-30.9 148.29-32.18 151.14-33.45 154.44-33.45L154.44-33.45Q156.34-33.45 158.16-32.98 159.99-32.5 161.64-31.65L161.64-31.65 161.64-27.3 163.59-27.3 163.59-32.9Q161.54-34.1 159.26-34.75 156.99-35.4 154.44-35.4L154.44-35.4Q150.74-35.4 147.49-33.98 144.24-32.55 141.84-30.15L141.84-30.15Q139.39-27.7 137.99-24.43 136.59-21.15 136.59-17.45L136.59-17.45Q136.59-13.75 137.99-10.5 139.39-7.25 141.84-4.85L141.84-4.85Q144.24-2.4 147.49-1 150.74 0.4 154.44 0.4L154.44 0.4Q156.99 0.4 159.26-0.28 161.54-0.95 163.54-2.1ZM183.98-2.5L183.98-2.5Q185.28-3.85 186.06-5.6 186.83-7.35 186.83-9.4L186.83-9.4Q186.83-11.4 186.06-13.2 185.28-15 183.98-16.35L183.98-16.35Q182.63-17.65 180.81-18.43 178.98-19.2 176.93-19.2L176.93-19.2Q174.88-19.2 173.08-18.43 171.28-17.65 169.98-16.35L169.98-16.35Q168.63-15 167.88-13.2 167.13-11.4 167.13-9.4L167.13-9.4Q167.13-7.35 167.88-5.58 168.63-3.8 169.98-2.5L169.98-2.5Q171.28-1.15 173.06-0.4 174.83 0.35 176.93 0.35L176.93 0.35Q178.98 0.35 180.81-0.4 182.63-1.15 183.98-2.5ZM171.43-3.95L171.43-3.95Q170.38-4.95 169.78-6.35 169.18-7.75 169.18-9.4L169.18-9.4Q169.18-11 169.78-12.4 170.38-13.8 171.43-14.9L171.43-14.9Q172.48-15.95 173.88-16.55 175.28-17.15 176.88-17.15L176.88-17.15Q178.48-17.15 179.91-16.55 181.33-15.95 182.38-14.9L182.38-14.9Q183.48-13.8 184.08-12.4 184.68-11 184.68-9.4L184.68-9.4Q184.68-7.75 184.08-6.35 183.48-4.95 182.38-3.95L182.38-3.95Q181.33-2.85 179.91-2.25 178.48-1.65 176.88-1.65L176.88-1.65Q175.28-1.65 173.88-2.25 172.48-2.85 171.43-3.95ZM208.18 0L213.73 0 213.73-1.95 210.03-1.95 210.03-37.5 204.43-37.5 204.43-35.55 207.98-35.55 207.98-18.95Q207.98-17.6 207.98-16.75 207.98-15.9 208.03-14.55L208.03-14.55Q207.63-15.4 206.98-16.2 206.33-17 205.28-17.7L205.28-17.7Q204.23-18.35 202.91-18.75 201.58-19.15 200.18-19.15L200.18-19.15Q198.08-19.15 196.31-18.38 194.53-17.6 193.18-16.3L193.18-16.3Q191.83-15 191.08-13.2 190.33-11.4 190.33-9.4L190.33-9.4Q190.33-7.35 191.08-5.6 191.83-3.85 193.18-2.5L193.18-2.5Q194.53-1.15 196.31-0.4 198.08 0.35 200.18 0.35L200.18 0.35Q201.68 0.35 203.01-0.05 204.33-0.45 205.38-1.15L205.38-1.15Q206.38-1.8 207.11-2.63 207.83-3.45 208.18-4.35L208.18-4.35Q208.18-3.7 208.18-3.18 208.18-2.65 208.18-2.05L208.18-2.05 208.18 0ZM200.18-17.15L200.18-17.15Q201.73-17.15 203.13-16.6 204.53-16.05 205.58-15.05L205.58-15.05Q206.68-14 207.33-12.53 207.98-11.05 207.98-9.4L207.98-9.4Q207.98-7.75 207.36-6.3 206.73-4.85 205.63-3.85L205.63-3.85Q204.53-2.8 203.16-2.23 201.78-1.65 200.18-1.65L200.18-1.65Q198.53-1.65 197.16-2.23 195.78-2.8 194.73-3.85L194.73-3.85Q193.63-4.85 193.01-6.3 192.38-7.75 192.38-9.4L192.38-9.4Q192.38-11 192.98-12.43 193.58-13.85 194.63-14.9L194.63-14.9Q195.68-15.95 197.08-16.55 198.48-17.15 200.18-17.15ZM227.03-17.15L227.03-17.15Q228.98-17.15 230.55-16.07 232.13-15 233.03-13.3L233.03-13.3Q229.63-11.95 226.25-10.63 222.88-9.3 219.48-7.95L219.48-7.95Q219.13-9.65 219.53-11.28 219.93-12.9 220.93-14.2L220.93-14.2Q221.98-15.55 223.55-16.35 225.13-17.15 227.03-17.15ZM233.58-2.25L233.58-2.25 232.33-3.75Q231.28-2.75 229.93-2.2 228.58-1.65 227.03-1.65L227.03-1.65Q224.68-1.65 222.83-2.85 220.98-4.05 220.08-6L220.08-6Q223.98-7.6 227.85-9.1 231.73-10.6 235.63-12.15L235.63-12.15Q235.13-13.65 234.33-14.93 233.53-16.2 232.48-17.1L232.48-17.1Q231.38-18.1 229.98-18.63 228.58-19.15 227.03-19.15L227.03-19.15Q224.98-19.15 223.2-18.38 221.43-17.6 220.08-16.3L220.08-16.3Q218.73-15 217.98-13.2 217.23-11.4 217.23-9.4L217.23-9.4Q217.23-7.35 217.98-5.6 218.73-3.85 220.08-2.5L220.08-2.5Q221.43-1.15 223.2-0.4 224.98 0.35 227.03 0.35L227.03 0.35Q228.98 0.35 230.63-0.35 232.28-1.05 233.58-2.25ZM281.22-2.1L281.22-2.1 280.07-3.75Q278.27-2.7 276.25-2.13 274.22-1.55 272.02-1.55L272.02-1.55Q268.77-1.55 265.92-2.83 263.07-4.1 260.97-6.25L260.97-6.25Q258.82-8.35 257.57-11.25 256.32-14.15 256.32-17.4L256.32-17.4Q256.32-20.7 257.57-23.63 258.82-26.55 260.97-28.7L260.97-28.7Q263.12-30.9 265.97-32.18 268.82-33.45 272.12-33.45L272.12-33.45Q274.02-33.45 275.85-32.98 277.67-32.5 279.32-31.65L279.32-31.65 279.32-27.3 281.27-27.3 281.27-32.9Q279.22-34.1 276.95-34.75 274.67-35.4 272.12-35.4L272.12-35.4Q268.42-35.4 265.17-33.98 261.92-32.55 259.52-30.15L259.52-30.15Q257.07-27.7 255.67-24.43 254.27-21.15 254.27-17.45L254.27-17.45Q254.27-13.75 255.67-10.5 257.07-7.25 259.52-4.85L259.52-4.85Q261.92-2.4 265.17-1 268.42 0.4 272.12 0.4L272.12 0.4Q274.67 0.4 276.95-0.28 279.22-0.95 281.22-2.1ZM302.62 0L308.17 0 308.17-1.95 304.47-1.95 304.47-18.75 302.82-18.75Q302.72-17.65 302.67-16.53 302.62-15.4 302.62-14.35L302.62-14.35Q301.77-16.3 299.67-17.73 297.57-19.15 294.62-19.15L294.62-19.15Q292.52-19.15 290.75-18.38 288.97-17.6 287.62-16.3L287.62-16.3Q286.27-14.95 285.52-13.15 284.77-11.35 284.77-9.4L284.77-9.4Q284.77-7.35 285.52-5.6 286.27-3.85 287.62-2.5L287.62-2.5Q288.97-1.15 290.75-0.4 292.52 0.35 294.62 0.35L294.62 0.35Q296.12 0.35 297.45-0.05 298.77-0.45 299.82-1.15L299.82-1.15Q300.82-1.8 301.55-2.63 302.27-3.45 302.62-4.35L302.62-4.35Q302.62-3.7 302.62-3.18 302.62-2.65 302.62-2.05L302.62-2.05 302.62 0ZM294.62-17.15L294.62-17.15Q296.22-17.15 297.62-16.57 299.02-16 300.12-14.95L300.12-14.95Q301.17-13.9 301.8-12.48 302.42-11.05 302.42-9.4L302.42-9.4Q302.42-7.75 301.8-6.33 301.17-4.9 300.07-3.85L300.07-3.85Q299.02-2.8 297.62-2.23 296.22-1.65 294.62-1.65L294.62-1.65Q293.02-1.65 291.67-2.2 290.32-2.75 289.27-3.75L289.27-3.75Q288.12-4.8 287.47-6.25 286.82-7.7 286.82-9.4L286.82-9.4Q286.82-11 287.4-12.4 287.97-13.8 289.02-14.85L289.02-14.85Q290.02-15.95 291.47-16.55 292.92-17.15 294.62-17.15ZM311.67 0L321.32 0 321.32-1.95 317.62-1.95 317.62-10.25Q317.62-11.75 318.24-13 318.87-14.25 319.97-15.2L319.97-15.2Q320.97-16.1 322.37-16.6 323.77-17.1 325.32-17.1L325.32-17.1Q327.42-17 328.49-15.83 329.57-14.65 329.67-13L329.67-13 329.67-1.95 325.77-1.95 325.77 0 335.42 0 335.42-1.95 331.72-1.95 331.72-10.45Q331.77-11.9 332.42-13.13 333.07-14.35 334.12-15.25L334.12-15.25Q335.17-16.1 336.54-16.6 337.92-17.1 339.42-17.1L339.42-17.1Q341.52-17 342.59-15.83 343.67-14.65 343.77-13L343.77-13 343.77-1.95 339.92-1.95 339.92 0 349.52 0 349.52-1.95 345.82-1.95 345.82-13.55Q345.72-16.05 344.14-17.6 342.57-19.15 339.77-19.15L339.77-19.15Q337.02-19.1 334.89-17.75 332.77-16.4 331.67-14.15L331.67-14.15Q331.42-16.4 329.82-17.78 328.22-19.15 325.67-19.15L325.67-19.15Q322.82-19.1 320.64-17.68 318.47-16.25 317.47-13.9L317.47-13.9Q317.42-14.75 317.37-15.43 317.32-16.1 317.27-16.95L317.27-16.95 317.22-18.75 311.97-18.75 311.97-16.8 315.57-16.8 315.57-1.95 311.67-1.95 311.67 0ZM353.42 10.55L353.42 12.5 363.07 12.5 363.07 10.55 358.82 10.55 358.82-2.25Q358.82-2.7 358.79-3.18 358.77-3.65 358.77-4.15L358.77-4.15Q359.12-3.25 359.79-2.48 360.47-1.7 361.52-1.05L361.52-1.05Q362.52-0.35 363.82 0.03 365.12 0.4 366.62 0.4L366.62 0.4Q368.62 0.4 370.42-0.38 372.22-1.15 373.57-2.45L373.57-2.45Q374.92-3.75 375.67-5.55 376.42-7.35 376.42-9.35L376.42-9.35Q376.42-11.35 375.67-13.13 374.92-14.9 373.57-16.25L373.57-16.25Q372.22-17.6 370.42-18.35 368.62-19.1 366.62-19.1L366.62-19.1Q363.62-19.1 361.52-17.65 359.42-16.2 358.57-14.25L358.57-14.25Q358.57-15.35 358.49-16.48 358.42-17.6 358.42-18.75L358.42-18.75 353.02-18.75 353.02-16.8 356.77-16.8 356.77 10.55 353.42 10.55ZM366.62-17.1L366.62-17.1Q368.17-17.1 369.57-16.53 370.97-15.95 372.02-15L372.02-15Q373.12-13.95 373.74-12.5 374.37-11.05 374.37-9.35L374.37-9.35Q374.37-7.7 373.74-6.25 373.12-4.8 372.02-3.75L372.02-3.75Q370.97-2.75 369.57-2.18 368.17-1.6 366.62-1.6L366.62-1.6Q364.97-1.6 363.57-2.18 362.17-2.75 361.12-3.75L361.12-3.75Q360.02-4.85 359.42-6.28 358.82-7.7 358.82-9.35L358.82-9.35Q358.82-10.95 359.39-12.38 359.97-13.8 361.02-14.85L361.02-14.85Q362.07-15.9 363.49-16.5 364.92-17.1 366.62-17.1Z" opacity="1" transform="matrix(1,0,0,1,0,0)" fill="#ff7900" class="wordmark-text-0" data-fill-palette-color="primary" id="text-0"></path></svg></g></svg></g></svg></g></svg></g></svg></g></svg></g></svg></g><g><path d="M0 123.6c0-68.262 55.338-123.6 123.6-123.6 61.398 0 112.34 44.768 121.964 103.441l-1.491 0c-9.609-57.858-59.89-101.971-120.473-101.97-67.45 0-122.129 54.679-122.129 122.129 0 67.45 54.679 122.129 122.129 122.129 60.584 0 110.864-44.113 120.473-101.97l1.491 0c-9.625 58.674-60.566 103.441-121.964 103.441-68.262 0-123.6-55.338-123.6-123.6z" fill="#ff7900" stroke="transparent" data-fill-palette-color="tertiary"></path></g></svg></g><defs></defs></svg><rect width="395.52" height="247.2" fill="none" stroke="none" visibility="hidden"></rect></g></svg></g></svg>